<?xml version="1.0" encoding="UTF-8"?>
<svg id="uuid-bc1a7679-7832-474f-b8d0-ed5c5d999895" data-name="Layer 1" xmlns="http://www.w3.org/2000/svg" viewBox="0 0 549.01 560.54">
  <defs>
    <style>
      .uuid-1713df71-532e-4f25-8528-78bd165ac917 {
        fill: #96ae24;
      }

      .uuid-1713df71-532e-4f25-8528-78bd165ac917, .uuid-a824b0a0-71bc-46ae-8901-44686babdff9, .uuid-4ad75caf-4849-4b09-aeb9-10205b772020, .uuid-768cc28e-db18-494d-87bf-4e8f61e40560, .uuid-7fbb1558-1902-45b8-876f-2fdad6002974, .uuid-071b2eaf-0468-4dbd-ae7a-0bc056c9e5a5, .uuid-4b4f506e-0b0f-4ee4-bebb-74598697037c, .uuid-ed722f87-8c5d-4acd-a303-d06a53e5b818, .uuid-9714bee2-741f-4b44-82b1-75c96226e452 {
        stroke-width: 0px;
      }

      .uuid-1713df71-532e-4f25-8528-78bd165ac917, .uuid-a824b0a0-71bc-46ae-8901-44686babdff9, .uuid-768cc28e-db18-494d-87bf-4e8f61e40560, .uuid-071b2eaf-0468-4dbd-ae7a-0bc056c9e5a5, .uuid-4b4f506e-0b0f-4ee4-bebb-74598697037c, .uuid-ed722f87-8c5d-4acd-a303-d06a53e5b818, .uuid-9714bee2-741f-4b44-82b1-75c96226e452 {
        fill-rule: evenodd;
      }

      .uuid-a824b0a0-71bc-46ae-8901-44686babdff9 {
        fill: #474f1f;
      }

      .uuid-4ad75caf-4849-4b09-aeb9-10205b772020 {
        fill: #535f0c;
      }

      .uuid-768cc28e-db18-494d-87bf-4e8f61e40560 {
        fill: #809224;
      }

      .uuid-7fbb1558-1902-45b8-876f-2fdad6002974, .uuid-9714bee2-741f-4b44-82b1-75c96226e452 {
        fill: #afca1f;
      }

      .uuid-071b2eaf-0468-4dbd-ae7a-0bc056c9e5a5 {
        fill: #fdfdfd;
      }

      .uuid-4b4f506e-0b0f-4ee4-bebb-74598697037c {
        fill: #697822;
      }

      .uuid-ed722f87-8c5d-4acd-a303-d06a53e5b818 {
        fill: #586421;
      }
    </style>
  </defs>
  <rect class="uuid-7fbb1558-1902-45b8-876f-2fdad6002974" x="43.18" y="554.86" width="505.83" height="5.55"/>
  <g>
    <rect class="uuid-7fbb1558-1902-45b8-876f-2fdad6002974" x="43.18" y="120.63" width="5.84" height="439.91"/>
    <g>
      <path class="uuid-a824b0a0-71bc-46ae-8901-44686babdff9" d="m505.83,240.83h-38.08l-148.25-56.84,113.26,47.86c14.18,5.99,8.71,9.11-9.31,9.12h-161.28c-14.86.01-16.27,6.57-.68,17.59l111.27,78.62h-22.52l-105.86-79.41,88.5,79.3H91.6l-29.52-67.85c-3.59-8.23-7.74-15.64-9.9-22.7-2.55-8.33-1.06-15.07,3.79-19.83,8.42-8.28,28.16-14.51,63.71-14.51h210.33v-3.52H119.68c-37.19,0-58.21,4.44-67.81,13.87-1.63,1.6-2.93,3.33-3.94,5.17.79-14.97,17.13-23.27,71.18-23.2h206.34c6.71,0,5.57-2.8-2.08-6.84l-81.03-42.71h17.85l41.43,13.96v-3.13c-6.33-.09-11.35-2.03-10.33-5.96l10.23-39.44c1.15-4.44,2.75-4.02,3.79,0l10.23,39.44c.95,3.69-3.97,5.72-10.23,5.94v6.02c0,.55-2.71.66-3.48.25.22,2.68,6.8,2.61,6.8-.14v-.5l32.87,11.57v-3.37c-9.79-.14-17.57-3.14-16-9.22l15.83-61.07c1.78-6.88,4.26-6.23,5.88,0l15.83,61.07c1.48,5.71-6.14,8.84-15.83,9.2v9.32c0,.88-4.46,1.02-5.49.31.38,3.01,8.81,2.88,8.81-.21v-2.85l41.48,14.61v-6.76c-13.5-.19-24.22-4.32-22.05-12.71l21.82-84.17c2.45-9.48,5.87-8.59,8.09,0l21.81,84.17c2.04,7.87-8.47,12.19-21.82,12.67v12.85c0,1.22-6.39,1.42-7.64.38.28,2.19,3.82,2.34,5.49,2.34,1.71-.01,5.47-.21,5.47-2.62v-2.21l55.25,19.45v-9.05c-17.11-.24-30.7-5.48-27.95-16.11l27.65-106.67c3.12-12.02,7.44-10.89,10.26,0l27.66,106.67c2.58,9.97-10.74,15.45-27.66,16.06v16.28c0,1.58-8.28,1.8-9.74.44.36,2.43,4.7,2.57,6.54,2.56,1.88,0,6.52-.2,6.52-2.9v-2.61l34.13,12.04Z"/>
      <path class="uuid-1713df71-532e-4f25-8528-78bd165ac917" d="m467.09,94.99l22.47,92.35c4.49,18.44-18.37,21.74-19.62,1.9l-5.92-93.95c-.67-10.59.78-9.72,3.07-.3Z"/>
      <path class="uuid-768cc28e-db18-494d-87bf-4e8f61e40560" d="m398.3,99.28l17.78,73.07c3.55,14.59-14.53,17.2-15.53,1.51l-4.68-74.34c-.53-8.38.62-7.69,2.43-.24Z"/>
      <path class="uuid-4b4f506e-0b0f-4ee4-bebb-74598697037c" d="m345.84,109.96l12.27,50.44c2.45,10.07-10.03,11.88-10.72,1.04l-3.23-51.32c-.36-5.78.43-5.31,1.68-.16Z"/>
      <path class="uuid-ed722f87-8c5d-4acd-a303-d06a53e5b818" d="m304.56,120.82l7.55,31.03c1.51,6.2-6.17,7.31-6.59.65l-1.99-31.57c-.22-3.56.26-3.27,1.03-.1Z"/>
      <path class="uuid-768cc28e-db18-494d-87bf-4e8f61e40560" d="m541.06,336.88h-143.55l-121.25-76.31c-11.05-6.96-18.46-14.8-1.68-14.79h76.11l190.38,91.1Z"/>
      <g>
        <path class="uuid-071b2eaf-0468-4dbd-ae7a-0bc056c9e5a5" d="m100.78,304.99v24.65c0,8-9.79,9.76-15.95,9.81-6.26.05-16.12-1.68-16.12-9.81v-23.88c-22.76-.72-59.23-5.99-67.26-28.18-1.83-5.04-1.85-10.37-.51-15.54L62.67,23.88C64.8,15.71,69.46-.11,80.23,0c10.62.11,15.34,15.71,17.45,23.87l61.74,238.17c1.19,4.6,1.23,9.3-.21,13.84-6.46,20.45-37.87,27.12-58.44,29.1Z"/>
        <path class="uuid-ed722f87-8c5d-4acd-a303-d06a53e5b818" d="m91.64,25.44l61.74,238.16c5.51,21.25-23.04,33.36-58.85,35.61v30.42c0,4.59-19.56,4.89-19.56,0v-30.04c-39.35.1-74.3-11.57-67.97-35.99L68.73,25.45c6.96-26.84,16.61-24.31,22.91,0Z"/>
        <path class="uuid-1713df71-532e-4f25-8528-78bd165ac917" d="m88.28,28.82l52.32,215.01c10.45,42.94-42.78,50.62-45.69,4.43l-13.78-218.75c-1.55-24.66,1.81-22.64,7.15-.7Z"/>
        <path class="uuid-9714bee2-741f-4b44-82b1-75c96226e452" d="m85.4,21.69l23.69,97.36c4.73,19.45-19.37,22.92-20.69,2.01l-6.24-99.05c-.7-11.16.82-10.25,3.24-.32Z"/>
      </g>
    </g>
    <g>
      <polygon class="uuid-4ad75caf-4849-4b09-aeb9-10205b772020" points="80.45 354.55 89.27 354.55 89.27 451.74 107.74 451.74 107.74 458.73 80.45 458.73 80.45 354.55"/>
      <path class="uuid-4ad75caf-4849-4b09-aeb9-10205b772020" d="m131.9,354.55h9l18.53,104.18h-8.53l-3.43-21.13h-20.83l-3.14,21.13h-8.35l16.75-104.18Zm14.38,75.77l-9.59-58.96h-.12l-8.82,58.96h18.53Z"/>
      <polygon class="uuid-4ad75caf-4849-4b09-aeb9-10205b772020" points="206.08 354.55 213.78 354.55 213.78 458.73 206.91 458.73 183.24 380.24 183.24 458.73 175.25 458.73 175.25 354.55 181.4 354.55 206.97 435.12 206.08 399.24 206.08 354.55"/>
      <path class="uuid-4ad75caf-4849-4b09-aeb9-10205b772020" d="m235.69,354.55h16.04c9.35,0,15.31,3.83,17.87,11.49,1.5,4.46,2.28,10.54,2.28,18.23v44.63c0,10.85-1.51,18.54-4.59,23.05-3.08,4.52-8.38,6.78-15.92,6.78h-15.69v-104.18Zm27.38,28.77c0-7.58-.9-13.04-2.63-16.39-1.74-3.36-4.46-5.03-8.17-5.03h-7.81v89.27h7.28c4.89,0,8.09-2.23,9.59-6.69,1.18-3.67,1.75-9.15,1.75-16.46v-44.69Z"/>
      <path class="uuid-4ad75caf-4849-4b09-aeb9-10205b772020" d="m288.56,370.53c.59-5.64,2.26-9.94,5-12.88,2.74-2.94,7.04-4.41,12.88-4.41s9.91,1.46,12.19,4.38c1.27,1.58,2.25,3.16,2.96,4.74,1.5,3.2,2.27,10.81,2.31,22.85v5.86h-9.06v-6.51c0-9.16-.3-14.7-.89-16.63-.59-1.93-1.21-3.39-1.84-4.38-1.15-1.81-3.2-2.72-6.16-2.72-6,0-9,5.58-9,16.75,0,3.91.37,6.56,1.12,7.96.75,1.4,1.31,2.5,1.69,3.29.37.79,2.89,3.51,7.55,8.17l5.68,5.74c8.41,8.64,12.61,18.56,12.61,29.74s-1.61,18.56-4.83,22.11c-3.22,3.55-7.98,5.33-14.29,5.33-9.71,0-15.29-5.86-16.75-17.58-.52-3.94-.77-8.8-.77-14.56v-10.83h9v10.65c0,9.39.62,15.86,1.86,19.42,1.24,3.55,3.78,5.33,7.61,5.33s6.26-1.16,7.31-3.46c1.05-2.31,1.62-5.1,1.72-8.37.1-3.28.15-6.79.15-10.54,0-7.73-3.06-14.58-9.17-20.54l-6.04-5.74c-5.29-5.17-8.82-9.52-10.6-13.05-1.78-3.53-2.66-7.12-2.66-10.77s.14-6.76.41-9.32Z"/>
      <path class="uuid-4ad75caf-4849-4b09-aeb9-10205b772020" d="m340.79,384.68c0-12.63,1.59-21.02,4.76-25.19,3.18-4.16,7.7-6.24,13.56-6.24s10.05,1.44,12.58,4.32c1.82,2.09,3,4.17,3.55,6.21,1.3,4.82,1.95,12.02,1.95,21.61v9h-8.94v-10.06c0-8.76-.47-14.62-1.42-17.58-.95-2.96-2.29-4.83-4.02-5.62-.95-.43-2.03-.65-3.26-.65-3.75,0-6.34,1.91-7.78,5.74-1.44,3.83-2.16,9.85-2.16,18.06v41.79c0,10.06.63,17.02,1.89,20.87,1.26,3.85,3.79,5.77,7.58,5.77s6.26-1.91,7.43-5.74c1.16-3.83,1.75-10.77,1.75-20.84v-8.35h8.88v8.29c0,9.11-.51,15.68-1.54,19.68-1.03,4-2.19,6.88-3.49,8.61-2.76,3.71-7.04,5.56-12.85,5.56s-10.16-1.83-13.08-5.5c-3.59-4.5-5.39-13.91-5.39-28.23v-41.5Z"/>
      <path class="uuid-4ad75caf-4849-4b09-aeb9-10205b772020" d="m406.74,354.55h9l18.53,104.18h-8.52l-3.44-21.13h-20.84l-3.14,21.13h-8.35l16.75-104.18Zm14.38,75.77l-9.59-58.96h-.12l-8.82,58.96h18.53Z"/>
      <path class="uuid-4ad75caf-4849-4b09-aeb9-10205b772020" d="m450.08,354.55h18.11c4.26,0,7.63.8,10.09,2.4,2.47,1.6,4.11,3.38,4.94,5.36,1.42,3.55,2.28,7,2.58,10.36.29,3.35.45,7.39.45,12.13v1.07c0,9.04-.56,15.41-1.69,19.12-1.12,3.71-2.4,6.37-3.82,7.99-2.88,3.31-7.24,4.97-13.08,4.97h-8.76v40.79h-8.82v-104.18Zm27.35,31.44v-2.78c0-7.66-.58-13.12-1.75-16.4-1.17-3.27-3.5-4.91-7.01-4.91h-9.77v48.6h9.35c3.63,0,6.07-1.72,7.31-5.18,1.24-3.45,1.87-9.89,1.87-19.33Z"/>
      <polygon class="uuid-4ad75caf-4849-4b09-aeb9-10205b772020" points="503.01 354.55 530.54 354.55 530.54 361.42 511.83 361.42 511.83 402.14 529.41 402.14 529.41 409.31 511.83 409.31 511.83 451.74 530.36 451.74 530.36 458.73 503.01 458.73 503.01 354.55"/>
    </g>
    <g>
      <path class="uuid-7fbb1558-1902-45b8-876f-2fdad6002974" d="m79.34,495.85c0-5.13.51-8.7,1.52-10.71,1.47-2.95,3.88-4.43,7.24-4.43,2.16,0,3.81.42,4.96,1.27,1.15.84,1.89,1.77,2.23,2.76.64,1.86,1.02,3.63,1.14,5.31.12,1.68.18,3.59.18,5.73v4.14h-4.28v-7.67c0-2.82-.28-4.87-.85-6.17-.56-1.3-1.69-1.95-3.37-1.95s-2.87.84-3.55,2.52c-.69,1.68-1.03,4.59-1.03,8.72v20.23c0,4.68.3,7.92.9,9.73.6,1.8,1.79,2.71,3.55,2.71s2.95-.91,3.55-2.73c.6-1.82.9-5.03.9-9.64v-6.26h-4.26v-3.58h8.43v25.09h-2.76l-.45-2.88c-.7,1.17-1.51,2.03-2.45,2.59-.94.56-2.15.84-3.63.84-2.78,0-4.8-1.22-6.07-3.65-1.27-2.43-1.9-6.4-1.9-11.91v-20.1Z"/>
      <path class="uuid-7fbb1558-1902-45b8-876f-2fdad6002974" d="m106.63,501.32c0-3.06.09-5.04.26-5.93.17-.89.35-1.67.55-2.34.2-.67.43-1.22.7-1.65.27-.43.61-.88,1.02-1.32.4-.45.87-.81,1.39-1.06.53-.25,1.14-.46,1.85-.62.7-.16,1.49-.24,2.35-.24s1.64.07,2.34.23c.69.15,1.3.32,1.83.51.53.19.98.52,1.37,1,.38.48.71.89.97,1.25.9,1.22,1.35,4.69,1.35,10.4v29.4h-4.2v-3.16c-.24.75-.85,1.52-1.82,2.3-.97.78-2.21,1.17-3.73,1.17-2.22,0-3.89-.94-5.03-2.8-1.14-1.87-1.71-4.58-1.71-8.13v-5.41c0-1.94.46-3.44,1.4-4.51.93-1.07,1.73-1.82,2.41-2.26,1.79-1.13,3.58-2.07,5.38-2.83,1.8-.76,2.84-1.2,3.1-1.31v-4.73c0-2.73-.1-4.33-.31-4.82-.21-.49-.38-.88-.51-1.18-.41-.94-1.41-1.41-2.99-1.41s-2.6.66-3.06,1.99c-.46,1.32-.69,3.84-.69,7.57v1.04h-4.23v-1.13Zm11.78,6.03c-3.1,1.41-4.89,2.29-5.37,2.65-.48.36-.91.73-1.29,1.1-.98.98-1.46,2.81-1.46,5.49v3.35c0,2.92.23,4.94.67,6.09.45,1.14,1.26,1.72,2.43,1.72s2.2-.29,3.1-.87c.9-.58,1.54-1.21,1.92-1.89v-17.64Z"/>
      <path class="uuid-7fbb1558-1902-45b8-876f-2fdad6002974" d="m144.06,488.15c.08,0,.11.3.11.9s-.03,2.68-.03,2.68c-1.48,0-2.8.29-3.93.89-1.14.59-2.25,1.66-3.34,3.2v35.12h-4.2v-42.28h4.2v4.71c.49-1.65,1.35-2.94,2.58-3.85,1.23-.91,2.76-1.37,4.61-1.37Z"/>
      <path class="uuid-7fbb1558-1902-45b8-876f-2fdad6002974" d="m162.92,480.69h4.23v50.25h-4.23v-3.21c-.97,2.35-2.84,3.53-5.61,3.53-3.14-.02-5.13-1.89-5.97-5.61-.47-2.05-.7-4.8-.7-8.26v-14.85c0-5.68.68-9.49,2.04-11.45,1.36-1.95,3.28-2.93,5.76-2.93.96,0,1.85.34,2.66,1.03.82.68,1.42,1.52,1.82,2.49v-10.99Zm.03,21.02c0-3.62-.28-6.17-.83-7.62-.55-1.46-1.63-2.19-3.23-2.19s-2.67.75-3.21,2.24c-.54,1.49-.82,4.08-.82,7.76v16.74c0,3.87.3,6.35.92,7.44.61,1.09,1.52,1.63,2.72,1.63s2.06-.22,2.58-.66c.52-.44.96-1.19,1.32-2.23.37-1.04.55-3.08.55-6.13v-17Z"/>
      <path class="uuid-7fbb1558-1902-45b8-876f-2fdad6002974" d="m176.6,502.36c0-4.92.45-8.31,1.35-10.15.94-1.84,2.2-3.04,3.78-3.58.94-.32,2.02-.48,3.25-.48s2.3.15,3.2.45c1.37.45,2.53,1.68,3.47,3.69.68,1.41,1.02,4.88,1.02,10.4v7.05h-11.87v8.51c0,4.36.32,7.03.97,8.02.65.98,1.61,1.48,2.87,1.48s2.16-.39,2.68-1.18c.52-.79.84-1.81.96-3.06.12-1.25.18-2.94.18-5.09v-3.16h4.09v1.38c0,4.17-.14,7.03-.42,8.57-.71,4.15-3.03,6.23-6.96,6.23-3.42,0-5.69-1.05-6.82-3.16-.77-1.39-1.25-2.98-1.45-4.76-.2-1.78-.3-4.11-.3-6.99v-14.18Zm11.87,3.86v-5.67c0-3.17-.12-5.25-.37-6.23-.41-1.65-1.45-2.48-3.1-2.48-2.22,0-3.53,1.46-3.95,4.37-.17,1.18-.25,2.63-.25,4.34v5.67h7.67Z"/>
      <path class="uuid-7fbb1558-1902-45b8-876f-2fdad6002974" d="m206.17,492.8c.38-1.26,1.21-2.35,2.49-3.28,1.29-.93,2.8-1.4,4.55-1.4s3.19.73,4.31,2.17c1.13,1.45,1.69,3.62,1.69,6.51v34.13h-4.2v-34.47c0-1.64-.37-2.81-1.11-3.54-.74-.72-1.73-1.08-2.97-1.08-3.18,0-4.76,1.57-4.76,4.7v34.39h-4.2v-42.28h4.2v4.14Z"/>
      <path class="uuid-7fbb1558-1902-45b8-876f-2fdad6002974" d="m239.61,495.68c0-6.01.76-10.01,2.27-11.99,1.51-1.98,3.66-2.98,6.45-2.98s4.79.69,5.99,2.06c.87,1,1.43,1.98,1.69,2.96.62,2.29.93,5.72.93,10.29v4.28h-4.25v-4.79c0-4.17-.22-6.96-.68-8.37-.45-1.41-1.09-2.3-1.92-2.68-.45-.21-.97-.31-1.55-.31-1.78,0-3.02.91-3.7,2.74-.69,1.82-1.03,4.69-1.03,8.6v19.9c0,4.79.3,8.1.9,9.93.6,1.83,1.8,2.75,3.61,2.75s2.98-.91,3.54-2.73c.56-1.82.83-5.13.83-9.92v-3.98h4.23v3.95c0,4.34-.25,7.46-.73,9.37-.49,1.91-1.04,3.27-1.66,4.1-1.32,1.76-3.35,2.65-6.12,2.65s-4.84-.88-6.23-2.62c-1.71-2.14-2.57-6.62-2.57-13.44v-19.76Z"/>
      <path class="uuid-7fbb1558-1902-45b8-876f-2fdad6002974" d="m265.26,502.25c0-4.89.45-8.25,1.38-10.09.92-1.84,2.17-3.02,3.75-3.55.94-.3,1.99-.45,3.16-.45,4.75,0,7.42,2.58,8,7.75.21,1.77.31,3.88.31,6.34v14.18c0,3.33-.07,5.48-.21,6.46-.14.98-.28,1.82-.41,2.53-.75,4.02-3.37,6.04-7.84,6.04-1.82,0-3.28-.38-4.37-1.13-2.07-1.43-3.26-4.05-3.58-7.86-.14-1.69-.2-3.7-.2-6.03v-14.18Zm12.4-.99c0-4.85-.64-7.77-1.92-8.77-.56-.43-1.24-.65-2.03-.65-2.14,0-3.42,1.19-3.83,3.58-.28,1.48-.42,3.43-.42,5.83v16.63c0,4.16.35,6.84,1.06,8.05.7,1.21,1.83,1.82,3.36,1.82s2.56-.86,3.05-2.58c.49-1.71.73-4.15.73-7.29v-16.63Z"/>
      <path class="uuid-7fbb1558-1902-45b8-876f-2fdad6002974" d="m295.62,492.8c.38-1.26,1.21-2.35,2.49-3.28,1.29-.93,2.81-1.4,4.55-1.4s3.19.73,4.32,2.17c1.13,1.45,1.69,3.62,1.69,6.51v34.13h-4.2v-34.47c0-1.64-.37-2.81-1.11-3.54-.74-.72-1.73-1.08-2.97-1.08-3.18,0-4.76,1.57-4.76,4.7v34.39h-4.2v-42.28h4.2v4.14Z"/>
      <path class="uuid-7fbb1558-1902-45b8-876f-2fdad6002974" d="m317.72,497.68c0-3.12.75-5.48,2.24-7.1,1.49-1.62,3.55-2.42,6.19-2.42s4.56,1.04,5.78,3.13c1.22,2.09,1.83,5.56,1.83,10.43v2.26h-4.37v-3.02c0-2.99-.26-5.22-.77-6.71-.52-1.48-1.42-2.22-2.71-2.22s-2.26.42-2.93,1.28c-.67.85-1,2.34-1,4.44v.17c0,3.29,1.53,6.42,4.59,9.39l2.17,2.11c3.74,3.74,5.61,7.86,5.61,12.37,0,3.01-.65,5.38-1.94,7.12-1.3,1.74-3.34,2.61-6.12,2.61s-4.86-.96-6.24-2.87c-1.38-1.92-2.07-4.97-2.07-9.16v-3.64h4.31v2.9c0,5.96,1.3,8.93,3.89,8.93,1.39,0,2.38-.45,2.96-1.35.58-.9.87-2.5.87-4.79,0-3.4-1.46-6.59-4.4-9.58l-2.23-2.26c-3.78-3.83-5.67-7.83-5.67-12.01Z"/>
      <path class="uuid-7fbb1558-1902-45b8-876f-2fdad6002974" d="m344.3,481.33h4.23v7.16h4.99v3.27h-4.99v33.29c0,.84.1,1.43.31,1.75.21.32.59.53,1.16.65.56.11,1.73.17,3.5.17v3.58h-2.93c-2.67,0-4.39-.47-5.16-1.41-.45-.54-.75-1.19-.89-1.93-.14-.74-.21-1.75-.21-3.03v-33.06h-4.23v-3.27h4.23v-7.16Z"/>
      <path class="uuid-7fbb1558-1902-45b8-876f-2fdad6002974" d="m372.58,488.15c.07,0,.11.3.11.9s-.03,2.68-.03,2.68c-1.49,0-2.8.29-3.93.89-1.14.59-2.25,1.66-3.34,3.2v35.12h-4.2v-42.28h4.2v4.71c.49-1.65,1.35-2.94,2.58-3.85,1.23-.91,2.76-1.37,4.61-1.37Z"/>
      <path class="uuid-7fbb1558-1902-45b8-876f-2fdad6002974" d="m383.94,522.71c0,3.25,1.43,4.88,4.29,4.88,1.39,0,2.5-.47,3.34-1.4.84-.93,1.24-2.2,1.24-3.79v-33.73h4.21v42.28h-4.2v-4.23c-.36,1.28-1.12,2.4-2.3,3.35-1.17.96-2.53,1.44-4.07,1.44s-3.04-.63-4.51-1.9c-1.46-1.27-2.2-3.5-2.2-6.7v-34.24h4.2v34.05Z"/>
      <path class="uuid-7fbb1558-1902-45b8-876f-2fdad6002974" d="m406.58,501.96c0-4.7.47-7.97,1.41-9.81.94-1.84,2.2-3.02,3.77-3.55.92-.3,2.17-.45,3.75-.45s3.02.43,4.34,1.3c.84.56,1.53,1.64,2.06,3.24.53,1.6.79,4.77.79,9.5v1.33h-4.25v-2.59c0-3.27-.11-5.39-.34-6.37-.42-1.69-1.46-2.53-3.13-2.53-2.05,0-3.32,1.18-3.81,3.55-.26,1.28-.39,3.14-.39,5.58v16.97c0,3.82.14,6.09.44,6.81.29.72.59,1.27.89,1.65.53.68,1.47,1.02,2.83,1.02s2.28-.6,2.75-1.79c.47-1.2.71-2.5.73-3.9.02-1.41.03-6.79.03-6.79h4.25v1.27c0,4.23-.14,7.12-.42,8.68-.73,4.27-3.11,6.4-7.13,6.4-3.42,0-5.69-1.05-6.82-3.16-.77-1.41-1.25-3.02-1.45-4.82-.2-1.8-.3-4.12-.3-6.93v-14.57Z"/>
      <path class="uuid-7fbb1558-1902-45b8-876f-2fdad6002974" d="m432.2,481.33h4.23v7.16h4.99v3.27h-4.99v33.29c0,.84.1,1.43.31,1.75.21.32.59.53,1.16.65.56.11,1.73.17,3.49.17v3.58h-2.93c-2.67,0-4.38-.47-5.16-1.41-.45-.54-.75-1.19-.89-1.93-.14-.74-.21-1.75-.21-3.03v-33.06h-4.23v-3.27h4.23v-7.16Z"/>
      <path class="uuid-7fbb1558-1902-45b8-876f-2fdad6002974" d="m449.12,480.71h4.2v4.06h-4.2v-4.06Zm0,7.95h4.23v42.28h-4.23v-42.28Z"/>
      <path class="uuid-7fbb1558-1902-45b8-876f-2fdad6002974" d="m462.97,502.25c0-4.89.46-8.25,1.38-10.09.92-1.84,2.17-3.02,3.75-3.55.94-.3,1.99-.45,3.16-.45,4.75,0,7.42,2.58,8,7.75.21,1.77.31,3.88.31,6.34v14.18c0,3.33-.07,5.48-.21,6.46-.14.98-.28,1.82-.41,2.53-.75,4.02-3.36,6.04-7.83,6.04-1.82,0-3.28-.38-4.37-1.13-2.07-1.43-3.26-4.05-3.58-7.86-.13-1.69-.2-3.7-.2-6.03v-14.18Zm12.4-.99c0-4.85-.64-7.77-1.92-8.77-.56-.43-1.24-.65-2.03-.65-2.14,0-3.42,1.19-3.84,3.58-.28,1.48-.42,3.43-.42,5.83v16.63c0,4.16.35,6.84,1.06,8.05.7,1.21,1.83,1.82,3.37,1.82s2.55-.86,3.04-2.58c.49-1.71.73-4.15.73-7.29v-16.63Z"/>
      <path class="uuid-7fbb1558-1902-45b8-876f-2fdad6002974" d="m493.32,492.8c.38-1.26,1.21-2.35,2.49-3.28,1.29-.93,2.81-1.4,4.55-1.4s3.18.73,4.31,2.17c1.13,1.45,1.69,3.62,1.69,6.51v34.13h-4.2v-34.47c0-1.64-.37-2.81-1.12-3.54-.74-.72-1.73-1.08-2.97-1.08-3.17,0-4.76,1.57-4.76,4.7v34.39h-4.2v-42.28h4.2v4.14Z"/>
      <path class="uuid-7fbb1558-1902-45b8-876f-2fdad6002974" d="m515.43,497.68c0-3.12.75-5.48,2.24-7.1s3.55-2.42,6.19-2.42,4.56,1.04,5.78,3.13c1.22,2.09,1.83,5.56,1.83,10.43v2.26h-4.37v-3.02c0-2.99-.26-5.22-.77-6.71-.52-1.48-1.42-2.22-2.71-2.22s-2.26.42-2.93,1.28c-.67.85-1,2.34-1,4.44v.17c0,3.29,1.53,6.42,4.59,9.39l2.17,2.11c3.74,3.74,5.61,7.86,5.61,12.37,0,3.01-.65,5.38-1.95,7.12-1.29,1.74-3.34,2.61-6.12,2.61s-4.86-.96-6.24-2.87c-1.38-1.92-2.07-4.97-2.07-9.16v-3.64h4.31v2.9c0,5.96,1.3,8.93,3.89,8.93,1.39,0,2.38-.45,2.96-1.35.58-.9.87-2.5.87-4.79,0-3.4-1.47-6.59-4.4-9.58l-2.23-2.26c-3.78-3.83-5.66-7.83-5.66-12.01Z"/>
    </g>
  </g>
</svg>