<?xml version="1.0" encoding="UTF-8"?>
<svg id="uuid-cc8d8035-b275-4699-b5f5-23bce6651d7c" data-name="Layer 1" xmlns="http://www.w3.org/2000/svg" viewBox="0 0 1600 1600">
  <defs>
    <style>
      .uuid-bc621fbb-fde1-4623-9933-ceb5e3d6687e {
        fill: #c9892d;
      }

      .uuid-bc621fbb-fde1-4623-9933-ceb5e3d6687e, .uuid-4f4f7ee3-b846-4092-9953-f6fd45b84b7b, .uuid-818d254e-d348-4942-ba3b-386e4fb56829 {
        stroke-width: 0px;
      }

      .uuid-4f4f7ee3-b846-4092-9953-f6fd45b84b7b {
        fill: #f2f2f2;
      }

      .uuid-818d254e-d348-4942-ba3b-386e4fb56829 {
        fill: #5f6266;
      }
    </style>
  </defs>
  <rect class="uuid-4f4f7ee3-b846-4092-9953-f6fd45b84b7b" width="1600" height="1600"/>
  <g>
    <g>
      <path class="uuid-bc621fbb-fde1-4623-9933-ceb5e3d6687e" d="m975.81,753.7v-65.58c0-54.91-44.52-99.43-99.43-99.43h-81.65v-10.79l-70.64,38.71,70.64,39.32v-11.47h81.66c24.1,0,43.65,19.54,43.65,43.65v65.58c0,24.11-19.54,43.66-43.66,43.66h-181.4c0,30.8,24.97,55.77,55.77,55.77h125.63c54.91,0,99.42-44.51,99.42-99.42Z"/>
      <path class="uuid-818d254e-d348-4942-ba3b-386e4fb56829" d="m805.29,694.5h-81.68c-24.11,0-43.65-19.54-43.65-43.65v-65.58c0-24.11,19.55-43.66,43.66-43.66h181.4c0-30.8-24.97-55.77-55.77-55.77h-125.63c-54.91,0-99.42,44.51-99.42,99.42v65.58c0,54.91,44.52,99.43,99.43,99.43h81.67v5.32l70.11-33.53-70.11-39.02v11.46Z"/>
    </g>
    <g>
      <g>
        <path class="uuid-818d254e-d348-4942-ba3b-386e4fb56829" d="m373.44,933.03h16.76v80.93h50.56v15.25h-67.33v-96.18Z"/>
        <path class="uuid-818d254e-d348-4942-ba3b-386e4fb56829" d="m549.04,1000.22c-2.47,6.05-5.96,11.34-10.44,15.87-4.49,4.53-9.8,8.13-15.94,10.79-6.14,2.66-12.92,3.98-20.34,3.98s-14.2-1.31-20.33-3.92c-6.14-2.61-11.4-6.16-15.8-10.65-4.4-4.49-7.83-9.75-10.31-15.8-2.47-6.05-3.71-12.46-3.71-19.24s1.24-13.19,3.71-19.24c2.47-6.05,5.95-11.34,10.44-15.87,4.49-4.53,9.8-8.13,15.94-10.79,6.14-2.66,12.92-3.98,20.34-3.98s14.2,1.3,20.34,3.92c6.14,2.61,11.4,6.16,15.8,10.65,4.4,4.49,7.83,9.75,10.31,15.8,2.47,6.05,3.71,12.46,3.71,19.24s-1.24,13.19-3.71,19.24Zm-16.42-32.22c-1.6-4.17-3.85-7.81-6.73-10.92-2.89-3.11-6.34-5.59-10.37-7.42-4.03-1.83-8.43-2.75-13.19-2.75s-9.14.89-13.12,2.68c-3.98,1.79-7.4,4.21-10.24,7.28-2.84,3.07-5.06,6.69-6.66,10.85-1.6,4.17-2.4,8.59-2.4,13.26s.8,9.09,2.4,13.26c1.6,4.17,3.85,7.81,6.73,10.92,2.89,3.12,6.34,5.59,10.37,7.42,4.03,1.83,8.43,2.75,13.19,2.75s9.14-.89,13.12-2.68c3.98-1.79,7.4-4.21,10.24-7.28,2.84-3.07,5.06-6.69,6.66-10.85,1.6-4.17,2.4-8.59,2.4-13.26s-.8-9.09-2.4-13.26Z"/>
        <path class="uuid-818d254e-d348-4942-ba3b-386e4fb56829" d="m654.49,1021.65c-2.89,1.83-6,3.43-9.34,4.81-3.34,1.37-6.94,2.45-10.79,3.23-3.85.78-7.88,1.17-12.09,1.17-7.51,0-14.34-1.26-20.47-3.78-6.14-2.52-11.38-6-15.73-10.44-4.35-4.44-7.72-9.69-10.1-15.73-2.38-6.05-3.57-12.59-3.57-19.65s1.21-13.19,3.64-19.24c2.43-6.05,5.84-11.34,10.24-15.87,4.4-4.53,9.64-8.13,15.73-10.79,6.09-2.66,12.75-3.98,19.99-3.98,4.21,0,8.04.3,11.47.89,3.43.6,6.62,1.44,9.55,2.54,2.93,1.1,5.7,2.45,8.31,4.05,2.61,1.6,5.15,3.46,7.63,5.56l-10.72,12.78c-1.83-1.56-3.71-2.98-5.63-4.26-1.92-1.28-3.94-2.36-6.05-3.23-2.11-.87-4.42-1.56-6.94-2.06-2.52-.5-5.29-.76-8.31-.76-4.4,0-8.5.89-12.3,2.68-3.8,1.79-7.1,4.25-9.89,7.37-2.79,3.12-4.99,6.75-6.59,10.88-1.6,4.13-2.4,8.54-2.4,13.22,0,4.96.78,9.55,2.34,13.77,1.56,4.22,3.78,7.87,6.66,10.94,2.89,3.07,6.32,5.49,10.31,7.23,3.98,1.74,8.45,2.61,13.4,2.61,4.58,0,8.86-.67,12.85-2,3.98-1.34,7.44-3.11,10.37-5.32v-18.1h-24.59v-14.7h40.95v40.4c-2.38,2.02-5.01,3.94-7.9,5.77Z"/>
        <path class="uuid-818d254e-d348-4942-ba3b-386e4fb56829" d="m780.42,1000.22c-2.47,6.05-5.96,11.34-10.44,15.87-4.49,4.53-9.8,8.13-15.94,10.79-6.14,2.66-12.92,3.98-20.34,3.98s-14.2-1.31-20.33-3.92c-6.14-2.61-11.4-6.16-15.8-10.65-4.4-4.49-7.83-9.75-10.31-15.8-2.47-6.05-3.71-12.46-3.71-19.24s1.24-13.19,3.71-19.24c2.47-6.05,5.95-11.34,10.44-15.87,4.49-4.53,9.8-8.13,15.94-10.79,6.14-2.66,12.92-3.98,20.34-3.98s14.2,1.3,20.34,3.92c6.14,2.61,11.4,6.16,15.8,10.65,4.4,4.49,7.83,9.75,10.3,15.8,2.47,6.05,3.71,12.46,3.71,19.24s-1.24,13.19-3.71,19.24Zm-16.42-32.22c-1.6-4.17-3.85-7.81-6.73-10.92-2.89-3.11-6.34-5.59-10.37-7.42-4.03-1.83-8.43-2.75-13.19-2.75s-9.14.89-13.12,2.68c-3.98,1.79-7.4,4.21-10.24,7.28-2.84,3.07-5.06,6.69-6.66,10.85-1.6,4.17-2.4,8.59-2.4,13.26s.8,9.09,2.4,13.26c1.6,4.17,3.85,7.81,6.73,10.92,2.89,3.12,6.34,5.59,10.37,7.42,4.03,1.83,8.43,2.75,13.19,2.75s9.14-.89,13.12-2.68c3.98-1.79,7.4-4.21,10.24-7.28,2.84-3.07,5.06-6.69,6.66-10.85,1.6-4.17,2.4-8.59,2.4-13.26s-.8-9.09-2.4-13.26Z"/>
        <path class="uuid-818d254e-d348-4942-ba3b-386e4fb56829" d="m875.09,933.03h16.76v96.18h-14.12l-52.93-68.43v68.43h-16.76v-96.18h15.63l51.42,66.5v-66.5Z"/>
        <path class="uuid-818d254e-d348-4942-ba3b-386e4fb56829" d="m1012.08,1029.21h-17.86l-9.76-23.22h-45.48l-9.89,23.22h-17.31l42.32-96.87h15.66l42.32,96.87Zm-50.43-76.67l-16.49,38.47h33.11l-16.63-38.47Z"/>
        <path class="uuid-818d254e-d348-4942-ba3b-386e4fb56829" d="m1079.4,1005.57h-.55l-30.09-45.07v68.7h-16.76v-96.18h18l29.27,45.48,29.27-45.48h18v96.18h-16.76v-68.98l-30.37,45.34Z"/>
        <path class="uuid-818d254e-d348-4942-ba3b-386e4fb56829" d="m1225.87,948.28h-54.41v24.73h48.23v15.25h-48.23v25.69h55.1v15.25h-71.86v-96.18h71.17v15.25Z"/>
      </g>
      <g>
        <path class="uuid-bc621fbb-fde1-4623-9933-ceb5e3d6687e" d="m457.12,1113.58h-5.99v-13.32l-13.42-20.47h7l9.46,14.96,9.56-14.96h6.81l-13.42,20.32v13.47Z"/>
        <path class="uuid-bc621fbb-fde1-4623-9933-ceb5e3d6687e" d="m507.8,1103.39c-.87,2.12-2.09,3.98-3.67,5.57-1.58,1.59-3.44,2.86-5.6,3.79-2.16.93-4.54,1.4-7.14,1.4s-4.99-.46-7.14-1.38c-2.16-.92-4.01-2.16-5.55-3.74-1.54-1.58-2.75-3.43-3.62-5.55-.87-2.12-1.3-4.38-1.3-6.76s.43-4.63,1.3-6.76c.87-2.12,2.09-3.98,3.67-5.58,1.58-1.59,3.44-2.85,5.6-3.79,2.16-.93,4.54-1.4,7.14-1.4s4.99.46,7.14,1.38c2.16.92,4.01,2.17,5.55,3.74,1.54,1.58,2.75,3.43,3.62,5.55.87,2.12,1.3,4.38,1.3,6.76s-.43,4.63-1.3,6.76Zm-5.77-11.32c-.56-1.46-1.35-2.74-2.37-3.84-1.01-1.09-2.23-1.96-3.64-2.61-1.42-.64-2.96-.97-4.63-.97s-3.21.31-4.61.94c-1.4.63-2.6,1.48-3.6,2.56-1,1.08-1.78,2.35-2.34,3.81-.56,1.46-.84,3.02-.84,4.66s.28,3.19.84,4.66c.56,1.47,1.35,2.74,2.37,3.84,1.01,1.1,2.23,1.96,3.64,2.61,1.42.64,2.96.97,4.63.97s3.21-.31,4.61-.94c1.4-.63,2.6-1.48,3.6-2.56,1-1.08,1.78-2.35,2.34-3.81.56-1.46.84-3.02.84-4.66s-.28-3.19-.84-4.66Z"/>
        <path class="uuid-bc621fbb-fde1-4623-9933-ceb5e3d6687e" d="m547.1,1098.95c0,2.51-.35,4.71-1.04,6.61-.69,1.9-1.67,3.48-2.92,4.75-1.25,1.27-2.77,2.22-4.56,2.85-1.79.63-3.79.94-6.01.94s-4.17-.31-5.94-.94c-1.77-.63-3.28-1.57-4.54-2.82-1.25-1.26-2.22-2.81-2.9-4.66-.68-1.85-1.01-4-1.01-6.44v-19.45h5.89v19.21c0,3.15.76,5.55,2.28,7.19,1.52,1.64,3.62,2.46,6.31,2.46s4.74-.79,6.26-2.36c1.52-1.58,2.28-3.93,2.28-7.05v-19.45h5.89v19.16Z"/>
        <path class="uuid-bc621fbb-fde1-4623-9933-ceb5e3d6687e" d="m579.34,1113.58l-8.33-11.78h-7.46v11.78h-5.89v-33.79h15.06c1.93,0,3.68.25,5.24.75,1.56.5,2.88,1.21,3.96,2.12,1.08.92,1.91,2.04,2.49,3.38.58,1.34.87,2.82.87,4.46,0,1.42-.2,2.68-.6,3.79-.4,1.11-.96,2.09-1.66,2.94-.71.85-1.55,1.58-2.53,2.17-.98.6-2.07,1.05-3.26,1.37l9.12,12.79h-7Zm-1.94-27c-1.23-.95-2.95-1.43-5.18-1.43h-8.67v11.39h8.71c2.13,0,3.82-.52,5.08-1.55,1.26-1.03,1.89-2.42,1.89-4.17,0-1.87-.61-3.29-1.84-4.24Z"/>
        <path class="uuid-bc621fbb-fde1-4623-9933-ceb5e3d6687e" d="m617.18,1090.36c.23.48.64.93,1.23,1.35.6.42,1.42.8,2.47,1.16,1.05.35,2.38.72,3.99,1.11,1.77.45,3.35.95,4.72,1.5,1.37.55,2.51,1.21,3.41,2,.9.79,1.59,1.71,2.06,2.75.47,1.05.7,2.28.7,3.69,0,1.61-.3,3.04-.89,4.3-.59,1.26-1.41,2.32-2.47,3.19-1.05.87-2.32,1.53-3.8,1.98-1.48.45-3.1.68-4.87.68-2.61,0-5.1-.44-7.48-1.33-2.38-.88-4.59-2.24-6.61-4.08l3.57-4.25c1.64,1.42,3.3,2.5,4.97,3.26,1.67.76,3.57,1.13,5.7,1.13,1.83,0,3.29-.39,4.37-1.16,1.08-.77,1.62-1.82,1.62-3.14,0-.61-.11-1.16-.32-1.64-.21-.48-.6-.92-1.16-1.33-.56-.4-1.34-.78-2.32-1.13-.98-.35-2.27-.72-3.85-1.11-1.81-.42-3.41-.88-4.82-1.4-1.4-.51-2.58-1.16-3.53-1.93-.95-.77-1.68-1.71-2.18-2.8-.5-1.09-.75-2.43-.75-4.01,0-1.48.29-2.82.86-4.03.58-1.21,1.36-2.24,2.37-3.11,1.01-.87,2.21-1.54,3.63-2,1.41-.47,2.96-.7,4.63-.7,2.48,0,4.71.36,6.69,1.09,1.98.72,3.84,1.78,5.58,3.16l-3.19,4.49c-1.55-1.13-3.07-1.99-4.59-2.58-1.51-.59-3.04-.89-4.59-.89-1.74,0-3.09.39-4.05,1.18-.97.79-1.45,1.75-1.45,2.87,0,.68.11,1.26.34,1.74Z"/>
        <path class="uuid-bc621fbb-fde1-4623-9933-ceb5e3d6687e" d="m645.18,1079.79h5.89v28.43h17.76v5.36h-23.65v-33.79Z"/>
        <path class="uuid-bc621fbb-fde1-4623-9933-ceb5e3d6687e" d="m708.07,1103.39c-.87,2.12-2.09,3.98-3.67,5.57-1.58,1.59-3.44,2.86-5.6,3.79-2.16.93-4.54,1.4-7.14,1.4s-4.99-.46-7.14-1.38c-2.16-.92-4.01-2.16-5.55-3.74-1.54-1.58-2.75-3.43-3.62-5.55-.87-2.12-1.3-4.38-1.3-6.76s.43-4.63,1.3-6.76c.87-2.12,2.09-3.98,3.67-5.58,1.58-1.59,3.44-2.85,5.6-3.79,2.16-.93,4.54-1.4,7.14-1.4s4.99.46,7.14,1.38c2.16.92,4.01,2.17,5.55,3.74,1.54,1.58,2.75,3.43,3.62,5.55.87,2.12,1.3,4.38,1.3,6.76s-.43,4.63-1.3,6.76Zm-5.77-11.32c-.56-1.46-1.35-2.74-2.37-3.84-1.01-1.09-2.23-1.96-3.64-2.61-1.42-.64-2.96-.97-4.63-.97s-3.21.31-4.61.94c-1.4.63-2.6,1.48-3.6,2.56-1,1.08-1.78,2.35-2.34,3.81-.56,1.46-.84,3.02-.84,4.66s.28,3.19.84,4.66c.56,1.47,1.35,2.74,2.37,3.84,1.01,1.1,2.23,1.96,3.64,2.61,1.42.64,2.96.97,4.63.97s3.21-.31,4.61-.94c1.4-.63,2.6-1.48,3.6-2.56,1-1.08,1.78-2.35,2.34-3.81.56-1.46.84-3.02.84-4.66s-.28-3.19-.84-4.66Z"/>
        <path class="uuid-bc621fbb-fde1-4623-9933-ceb5e3d6687e" d="m746.32,1110.92c-1.01.64-2.11,1.21-3.28,1.69-1.17.48-2.44.86-3.79,1.13-1.35.27-2.77.41-4.25.41-2.64,0-5.04-.44-7.19-1.33-2.16-.88-4-2.11-5.53-3.67-1.53-1.56-2.71-3.4-3.55-5.53-.84-2.12-1.25-4.43-1.25-6.9s.43-4.63,1.28-6.76c.85-2.12,2.05-3.98,3.6-5.58,1.54-1.59,3.39-2.85,5.53-3.79,2.14-.93,4.48-1.4,7.02-1.4,1.48,0,2.82.11,4.03.31,1.21.21,2.32.51,3.35.89,1.03.39,2,.86,2.92,1.42.92.56,1.81,1.22,2.68,1.96l-3.77,4.49c-.64-.55-1.3-1.04-1.98-1.5-.68-.45-1.38-.83-2.12-1.13-.74-.31-1.55-.55-2.44-.72-.89-.18-1.86-.27-2.92-.27-1.54,0-2.99.32-4.32.94-1.34.63-2.49,1.49-3.48,2.59-.98,1.1-1.75,2.37-2.32,3.82-.56,1.45-.84,3-.84,4.64,0,1.74.27,3.35.82,4.84.55,1.48,1.33,2.77,2.34,3.84,1.01,1.08,2.22,1.93,3.62,2.54,1.4.61,2.97.92,4.71.92,1.61,0,3.11-.23,4.51-.7,1.4-.47,2.61-1.09,3.64-1.87v-6.36h-8.64v-5.17h14.38v14.19c-.84.71-1.76,1.38-2.78,2.03Z"/>
        <path class="uuid-bc621fbb-fde1-4623-9933-ceb5e3d6687e" d="m791.58,1113.58h-6.28l-3.43-8.16h-15.98l-3.48,8.16h-6.08l14.87-34.03h5.5l14.87,34.03Zm-17.72-26.93l-5.79,13.51h11.63l-5.84-13.51Z"/>
        <path class="uuid-bc621fbb-fde1-4623-9933-ceb5e3d6687e" d="m823.34,1079.79h5.89v33.79h-4.96l-18.59-24.04v24.04h-5.89v-33.79h5.49l18.06,23.36v-23.36Z"/>
        <path class="uuid-bc621fbb-fde1-4623-9933-ceb5e3d6687e" d="m884.57,1110.92c-1.01.64-2.11,1.21-3.28,1.69-1.18.48-2.44.86-3.79,1.13-1.35.27-2.77.41-4.25.41-2.64,0-5.04-.44-7.19-1.33-2.16-.88-4-2.11-5.53-3.67-1.53-1.56-2.71-3.4-3.55-5.53-.84-2.12-1.26-4.43-1.26-6.9s.43-4.63,1.28-6.76c.85-2.12,2.05-3.98,3.6-5.58,1.55-1.59,3.39-2.85,5.53-3.79,2.14-.93,4.48-1.4,7.02-1.4,1.48,0,2.82.11,4.03.31,1.21.21,2.32.51,3.35.89,1.03.39,2,.86,2.92,1.42.92.56,1.81,1.22,2.68,1.96l-3.76,4.49c-.64-.55-1.3-1.04-1.98-1.5-.68-.45-1.38-.83-2.12-1.13-.74-.31-1.55-.55-2.44-.72-.88-.18-1.86-.27-2.92-.27-1.55,0-2.99.32-4.32.94-1.34.63-2.49,1.49-3.48,2.59-.98,1.1-1.75,2.37-2.32,3.82-.56,1.45-.84,3-.84,4.64,0,1.74.27,3.35.82,4.84.55,1.48,1.33,2.77,2.34,3.84,1.01,1.08,2.22,1.93,3.62,2.54,1.4.61,2.97.92,4.71.92,1.61,0,3.11-.23,4.51-.7,1.4-.47,2.61-1.09,3.64-1.87v-6.36h-8.64v-5.17h14.38v14.19c-.84.71-1.76,1.38-2.77,2.03Z"/>
        <path class="uuid-bc621fbb-fde1-4623-9933-ceb5e3d6687e" d="m930.01,1103.39c-.87,2.12-2.09,3.98-3.67,5.57-1.58,1.59-3.44,2.86-5.6,3.79-2.16.93-4.54,1.4-7.14,1.4s-4.99-.46-7.14-1.38c-2.16-.92-4.01-2.16-5.55-3.74-1.55-1.58-2.75-3.43-3.62-5.55-.87-2.12-1.3-4.38-1.3-6.76s.43-4.63,1.3-6.76c.87-2.12,2.09-3.98,3.67-5.58,1.58-1.59,3.44-2.85,5.6-3.79,2.15-.93,4.54-1.4,7.14-1.4s4.99.46,7.14,1.38c2.16.92,4.01,2.17,5.55,3.74,1.55,1.58,2.75,3.43,3.62,5.55.87,2.12,1.3,4.38,1.3,6.76s-.43,4.63-1.3,6.76Zm-5.77-11.32c-.56-1.46-1.35-2.74-2.36-3.84-1.01-1.09-2.23-1.96-3.64-2.61-1.42-.64-2.96-.97-4.63-.97s-3.21.31-4.61.94c-1.4.63-2.6,1.48-3.6,2.56-1,1.08-1.78,2.35-2.34,3.81-.56,1.46-.84,3.02-.84,4.66s.28,3.19.84,4.66c.56,1.47,1.35,2.74,2.37,3.84,1.01,1.1,2.23,1.96,3.64,2.61,1.42.64,2.96.97,4.63.97s3.21-.31,4.61-.94c1.4-.63,2.6-1.48,3.6-2.56,1-1.08,1.78-2.35,2.34-3.81.56-1.46.84-3.02.84-4.66s-.28-3.19-.84-4.66Z"/>
        <path class="uuid-bc621fbb-fde1-4623-9933-ceb5e3d6687e" d="m965.92,1085.15h-19.11v8.69h16.94v5.36h-16.94v9.03h19.36v5.36h-25.24v-33.79h25v5.36Z"/>
        <path class="uuid-bc621fbb-fde1-4623-9933-ceb5e3d6687e" d="m980.99,1090.36c.23.48.64.93,1.23,1.35.6.42,1.42.8,2.47,1.16,1.05.35,2.38.72,3.99,1.11,1.77.45,3.35.95,4.72,1.5,1.37.55,2.51,1.21,3.41,2,.9.79,1.59,1.71,2.06,2.75.47,1.05.7,2.28.7,3.69,0,1.61-.3,3.04-.89,4.3-.59,1.26-1.41,2.32-2.47,3.19-1.05.87-2.32,1.53-3.8,1.98-1.48.45-3.1.68-4.87.68-2.61,0-5.1-.44-7.48-1.33-2.38-.88-4.59-2.24-6.61-4.08l3.57-4.25c1.64,1.42,3.3,2.5,4.97,3.26,1.67.76,3.57,1.13,5.7,1.13,1.83,0,3.29-.39,4.37-1.16,1.08-.77,1.62-1.82,1.62-3.14,0-.61-.1-1.16-.31-1.64-.21-.48-.6-.92-1.16-1.33-.56-.4-1.34-.78-2.32-1.13-.98-.35-2.27-.72-3.85-1.11-1.81-.42-3.41-.88-4.82-1.4-1.4-.51-2.58-1.16-3.53-1.93-.95-.77-1.68-1.71-2.18-2.8-.5-1.09-.75-2.43-.75-4.01,0-1.48.29-2.82.86-4.03.57-1.21,1.36-2.24,2.37-3.11,1.01-.87,2.21-1.54,3.63-2,1.41-.47,2.96-.7,4.63-.7,2.48,0,4.71.36,6.69,1.09,1.98.72,3.84,1.78,5.58,3.16l-3.19,4.49c-1.55-1.13-3.07-1.99-4.59-2.58-1.51-.59-3.04-.89-4.59-.89-1.74,0-3.09.39-4.05,1.18-.97.79-1.45,1.75-1.45,2.87,0,.68.11,1.26.34,1.74Z"/>
        <path class="uuid-bc621fbb-fde1-4623-9933-ceb5e3d6687e" d="m1031.76,1099.34v14.24h-5.89v-33.79h5.89v14.05h16.22v-14.05h5.89v33.79h-5.89v-14.24h-16.22Z"/>
        <path class="uuid-bc621fbb-fde1-4623-9933-ceb5e3d6687e" d="m1089.98,1085.15h-19.11v8.69h16.94v5.36h-16.94v9.03h19.36v5.36h-25.24v-33.79h25v5.36Z"/>
        <path class="uuid-bc621fbb-fde1-4623-9933-ceb5e3d6687e" d="m1121.4,1113.58l-8.33-11.78h-7.46v11.78h-5.89v-33.79h15.06c1.93,0,3.68.25,5.24.75,1.56.5,2.88,1.21,3.96,2.12,1.08.92,1.91,2.04,2.49,3.38.58,1.34.87,2.82.87,4.46,0,1.42-.2,2.68-.6,3.79-.4,1.11-.96,2.09-1.67,2.94-.71.85-1.55,1.58-2.53,2.17-.98.6-2.07,1.05-3.26,1.37l9.12,12.79h-7Zm-1.94-27c-1.23-.95-2.95-1.43-5.18-1.43h-8.67v11.39h8.72c2.13,0,3.82-.52,5.08-1.55,1.26-1.03,1.89-2.42,1.89-4.17,0-1.87-.61-3.29-1.84-4.24Z"/>
        <path class="uuid-bc621fbb-fde1-4623-9933-ceb5e3d6687e" d="m1162.04,1085.15h-19.11v8.69h16.94v5.36h-16.94v9.03h19.36v5.36h-25.24v-33.79h25v5.36Z"/>
      </g>
    </g>
  </g>
</svg>